<svg width="238" height="255" viewBox="0 0 238 255" fill="none" xmlns="http://www.w3.org/2000/svg">
<g clip-path="url(#clip0_500_30)">
<path d="M34.9487 107.052C42.0069 99.8629 44.9836 95.6945 49.0714 88.0862C53.0014 96.9318 56.1195 101.061 63.1944 107.052C56.129 113.964 52.9211 118.08 49.0714 126.017C45.1542 117.165 41.9949 113.073 34.9487 107.052Z" fill="#FFC300"/>
<path d="M23.8523 92.2242L11.1073 88.0862C11.1073 88.0862 -23.1361 215.613 31.4304 241.19C64.8366 256.848 98.2193 256.029 134.08 247.396C150.617 243.415 160.32 230.019 165.669 212.569C167.074 207.988 168.178 203.128 169.028 198.086C173.594 170.978 170.79 138.599 167.591 116.017C166.794 110.388 165.972 105.368 165.234 101.19C163.792 93.0328 162.67 88.0862 162.67 88.0862L149.925 92.2242C149.925 92.2242 181.743 224.102 126.501 234.293C97.4963 239.644 68.3054 241.187 38.3196 228.086C-10.5318 206.743 23.8523 92.2242 23.8523 92.2242Z" fill="#9B51E0"/>
<path d="M165.67 212.569C165.67 212.569 210.009 208.379 224.328 188.086C234.742 173.329 238.7 160.441 234.317 142.914C230.073 125.937 220.968 117.004 205.727 108.431C191.723 100.553 165.234 101.19 165.234 101.19C165.972 105.368 166.794 110.388 167.591 116.017C167.591 116.017 194.018 113.926 205.727 123.604C215.517 131.694 219.78 139.884 220.539 152.569C221.224 164.004 218.438 171.327 211.583 180.5C200.813 194.912 169.028 198.086 169.028 198.086C168.179 203.128 167.074 207.988 165.67 212.569Z" fill="#9B51E0"/>
<path fill-rule="evenodd" clip-rule="evenodd" d="M167.586 81.598C191.34 54.7499 216.155 7.80507 212.021 1.25336C207.888 -5.29837 161.694 32.2196 140.03 61.9429C118.089 92.0441 101.424 113.218 98.7787 127.805C98.1502 131.27 98.3125 134.363 99.3832 137.115C100.844 137.523 102.699 137.326 104.894 136.588C117.627 132.305 141.849 109.822 167.586 81.598ZM162.764 75.3912C142.536 100.054 103.517 131.598 103.517 131.598C103.517 131.598 126.497 89.7796 145.885 66.4258C165.774 42.47 203.755 11.5982 203.755 11.5982C203.755 11.5982 181.54 52.4974 162.764 75.3912Z" fill="#FFC300"/>
<path fill-rule="evenodd" clip-rule="evenodd" d="M98.7791 127.805C98.1506 131.27 98.3129 134.363 99.3835 137.116C100.845 137.523 102.699 137.326 104.895 136.588C106.339 145.879 104.601 152.495 98.7791 159.874C92.0045 168.46 84.1338 171.344 73.2045 171.253C63.6498 171.174 52.4037 160.598 52.8814 159.874C51.6609 159.131 46.6184 150.944 51.5037 148.839C55.7928 146.992 63.2151 146.426 63.2151 146.426C63.2151 146.426 63.9222 140.462 65.6264 137.116C69.0726 130.349 73.7535 127.18 81.127 125.391C87.8888 123.751 92.7046 124.409 98.7791 127.805ZM69.4156 148.839C71.3423 143.218 71.8784 140.747 76.3048 136.588C81.978 131.257 91.3071 128.181 95.9147 135.328C98.0329 138.613 97.7689 140.814 96.2833 146.426C93.7572 155.97 87.103 161.279 78.716 163.322C74.1258 164.441 71.0336 163.407 66.8535 161.74C66.4545 161.581 66.0463 161.418 65.6264 161.253C60.9483 159.418 56.7001 154.766 60.1152 155.391C63.5302 156.016 67.4889 154.462 69.4156 148.839Z" fill="#FFC300"/>
</g>
<defs>
<clipPath id="clip0_500_30">
<rect width="237" height="254" fill="white" transform="translate(0.5 0.5)"/>
</clipPath>
</defs>
</svg>
