<svg width="238" height="50" viewBox="0 0 238 50" fill="none" xmlns="http://www.w3.org/2000/svg">
<path d="M23.5133 5.30086C23.9859 3.84616 26.044 3.84616 26.5166 5.30086L30.1467 16.4731C30.3581 17.1237 30.9643 17.5641 31.6484 17.5641L43.3955 17.5641C44.9251 17.5641 45.5611 19.5214 44.3236 20.4205L34.82 27.3253C34.2666 27.7274 34.035 28.44 34.2464 29.0906L37.8765 40.2628C38.3491 41.7175 36.6841 42.9272 35.4467 42.0282L25.943 35.1233C25.3896 34.7213 24.6403 34.7213 24.0869 35.1233L14.5832 42.0282C13.3458 42.9272 11.6808 41.7175 12.1534 40.2628L15.7835 29.0906C15.9949 28.44 15.7633 27.7274 15.2099 27.3253L5.70626 20.4205C4.46882 19.5214 5.10478 17.5641 6.63434 17.5641L18.3815 17.5641C19.0656 17.5641 19.6718 17.1237 19.8832 16.4731L23.5133 5.30086Z" fill="#FFC300"/>
<path d="M70.506 5.30086C70.9786 3.84616 73.0366 3.84616 73.5093 5.30086L77.1394 16.4731C77.3507 17.1237 77.957 17.5641 78.641 17.5641L90.3882 17.5641C91.9178 17.5641 92.5537 19.5214 91.3163 20.4205L81.8126 27.3253C81.2592 27.7274 81.0277 28.44 81.239 29.0906L84.8691 40.2628C85.3418 41.7175 83.6768 42.9272 82.4394 42.0282L72.9357 35.1233C72.3823 34.7213 71.6329 34.7213 71.0795 35.1233L61.5759 42.0282C60.3384 42.9272 58.6735 41.7175 59.1461 40.2628L62.7762 29.0906C62.9876 28.44 62.756 27.7274 62.2026 27.3253L52.6989 20.4205C51.4615 19.5214 52.0975 17.5641 53.627 17.5641L65.3742 17.5641C66.0582 17.5641 66.6645 17.1237 66.8759 16.4731L70.506 5.30086Z" fill="#FFC300"/>
<path d="M117.498 5.30086C117.971 3.84616 120.029 3.84616 120.502 5.30086L124.132 16.4731C124.343 17.1237 124.949 17.5641 125.633 17.5641L137.381 17.5641C138.91 17.5641 139.546 19.5214 138.309 20.4205L128.805 27.3253C128.252 27.7274 128.02 28.44 128.231 29.0906L131.862 40.2628C132.334 41.7175 130.669 42.9272 129.432 42.0282L119.928 35.1233C119.375 34.7213 118.625 34.7213 118.072 35.1233L108.568 42.0282C107.331 42.9272 105.666 41.7175 106.139 40.2628L109.769 29.0906C109.98 28.44 109.748 27.7274 109.195 27.3253L99.6914 20.4205C98.4539 19.5214 99.0899 17.5641 100.619 17.5641L112.367 17.5641C113.051 17.5641 113.657 17.1237 113.868 16.4731L117.498 5.30086Z" fill="#FFC300"/>
<path d="M164.491 5.30086C164.963 3.84616 167.021 3.84616 167.494 5.30086L171.124 16.4731C171.336 17.1237 171.942 17.5641 172.626 17.5641L184.373 17.5641C185.903 17.5641 186.539 19.5214 185.301 20.4205L175.797 27.3253C175.244 27.7274 175.013 28.44 175.224 29.0906L178.854 40.2628C179.327 41.7175 177.662 42.9272 176.424 42.0282L166.921 35.1233C166.367 34.7213 165.618 34.7213 165.064 35.1233L155.561 42.0282C154.323 42.9272 152.658 41.7175 153.131 40.2628L156.761 29.0906C156.972 28.44 156.741 27.7274 156.187 27.3253L146.684 20.4205C145.446 19.5214 146.082 17.5641 147.612 17.5641L159.359 17.5641C160.043 17.5641 160.649 17.1237 160.861 16.4731L164.491 5.30086Z" fill="#FFC300"/>
<path d="M211.483 5.30086C211.956 3.84616 214.014 3.84616 214.487 5.30086L218.117 16.4731C218.328 17.1237 218.934 17.5641 219.618 17.5641L231.366 17.5641C232.895 17.5641 233.531 19.5214 232.294 20.4205L222.79 27.3253C222.237 27.7274 222.005 28.44 222.216 29.0906L225.847 40.2628C226.319 41.7175 224.654 42.9272 223.417 42.0282L213.913 35.1233C213.36 34.7213 212.61 34.7213 212.057 35.1233L202.553 42.0282C201.316 42.9272 199.651 41.7175 200.124 40.2628L203.754 29.0906C203.965 28.44 203.733 27.7274 203.18 27.3253L193.676 20.4205C192.439 19.5214 193.075 17.5641 194.604 17.5641L206.352 17.5641C207.036 17.5641 207.642 17.1237 207.853 16.4731L211.483 5.30086Z" fill="#FFC300"/>
</svg>
