<svg width="234" height="233" viewBox="0 0 234 233" fill="none" xmlns="http://www.w3.org/2000/svg">
<circle cx="117" cy="116.33" r="116.33" fill="#56CCF2" fill-opacity="0.8"/>
<g clip-path="url(#clip0_164_1728)">
<path d="M64.6861 78.9777L56.2244 76.2333C56.2244 76.2333 33.4895 160.811 69.7174 177.774C91.8964 188.159 114.06 187.616 137.868 181.89C148.848 179.25 155.29 170.365 158.841 158.792C159.774 155.754 160.507 152.531 161.071 149.187C164.103 131.208 162.241 109.734 160.117 94.7576C159.588 91.0242 159.042 87.6947 158.552 84.9237C157.595 79.5141 156.85 76.2333 156.85 76.2333L148.388 78.9777C148.388 78.9777 169.513 166.441 132.837 173.2C113.58 176.749 94.1994 177.772 74.2913 169.083C41.8578 154.928 64.6861 78.9777 64.6861 78.9777Z" fill="#242424"/>
<path d="M158.841 158.792C158.841 158.792 188.279 156.013 197.786 142.555C204.7 132.767 207.328 124.22 204.418 112.596C201.6 101.336 195.555 95.4121 185.437 89.7263C176.139 84.5017 158.552 84.9238 158.552 84.9238C159.042 87.6947 159.588 91.0243 160.118 94.7576C160.118 94.7576 177.663 93.3709 185.437 99.7889C191.936 105.154 194.767 110.586 195.271 118.999C195.725 126.583 193.876 131.44 189.325 137.523C182.174 147.082 161.071 149.187 161.071 149.187C160.507 152.531 159.774 155.754 158.841 158.792Z" fill="#242424"/>
</g>
<defs>
<clipPath id="clip0_164_1728">
<rect width="156.427" height="109.773" fill="white" transform="translate(49.182 76.2333)"/>
</clipPath>
</defs>
</svg>
