<svg width="234" height="233" viewBox="0 0 234 233" fill="none" xmlns="http://www.w3.org/2000/svg">
<circle cx="116.913" cy="116.33" r="116.33" fill="#56CCF2" fill-opacity="0.8"/>
<g clip-path="url(#clip0_164_1729)">
<path d="M38.2046 116.611C43.9694 110.744 46.4007 107.342 49.7397 101.132C52.9496 108.352 55.4961 111.722 61.2747 116.611C55.5039 122.253 52.884 125.613 49.7397 132.091C46.5401 124.866 43.9596 121.525 38.2046 116.611Z" fill="#242424"/>
<path fill-rule="evenodd" clip-rule="evenodd" d="M157.795 112.723C177.197 90.8102 197.465 52.4944 194.088 47.1469C190.712 41.7995 152.983 72.4211 135.288 96.681C117.368 121.249 103.756 138.531 101.596 150.437C101.082 153.265 101.215 155.789 102.089 158.036C103.283 158.369 104.797 158.208 106.591 157.605C116.99 154.109 136.774 135.759 157.795 112.723ZM153.856 107.657C137.335 127.787 105.465 153.532 105.465 153.532C105.465 153.532 124.235 119.401 140.071 100.34C156.315 80.7873 187.336 55.5903 187.336 55.5903C187.336 55.5903 169.192 88.9717 153.856 107.657Z" fill="#242424"/>
<path fill-rule="evenodd" clip-rule="evenodd" d="M101.596 150.437C101.082 153.265 101.215 155.789 102.089 158.036C103.283 158.369 104.797 158.208 106.591 157.605C107.77 165.188 106.351 170.589 101.596 176.611C96.0623 183.619 89.6338 185.973 80.7073 185.899C72.9033 185.834 63.7179 177.202 64.108 176.611C63.1111 176.005 58.9926 169.323 62.9827 167.605C66.486 166.097 72.5483 165.635 72.5483 165.635C72.5483 165.635 73.1257 160.767 74.5177 158.036C77.3325 152.513 81.1557 149.927 87.1782 148.467C92.7009 147.128 96.634 147.665 101.596 150.437ZM77.6125 167.605C79.1862 163.017 79.6241 161 83.2394 157.605C87.873 153.254 95.4929 150.743 99.2561 156.577C100.986 159.258 100.77 161.054 99.5572 165.635C97.4938 173.425 92.059 177.758 85.2088 179.425C81.4596 180.338 78.9343 179.495 75.5198 178.134C75.194 178.004 74.8606 177.871 74.5177 177.737C70.6969 176.239 67.2269 172.442 70.0162 172.952C72.8055 173.463 76.0388 172.193 77.6125 167.605Z" fill="#242424"/>
</g>
<defs>
<clipPath id="clip0_164_1729">
<rect width="156.427" height="139.596" fill="white" transform="translate(38.2046 46.532)"/>
</clipPath>
</defs>
</svg>
