<svg width="262" height="127" viewBox="0 0 262 127" fill="none" xmlns="http://www.w3.org/2000/svg">
<path d="M11.3222 103.991C10.4156 103.991 9.74092 104.255 9.29815 104.782C8.87647 105.309 8.66562 106.247 8.66562 107.596V111.328H13.9156V107.533C13.9156 106.648 13.8102 105.941 13.5993 105.414C13.3885 104.866 13.0933 104.497 12.7138 104.307C12.3554 104.096 11.8915 103.991 11.3222 103.991ZM13.9156 115.693H8.66562V117.369C8.66562 118.444 8.38099 119.235 7.81171 119.741C7.24244 120.247 6.26202 120.5 4.87046 120.5C4.2801 120.5 3.79516 120.416 3.41565 120.247C3.03613 120.078 2.69878 119.794 2.4036 119.393C2.12951 118.992 1.91867 118.413 1.77108 117.654C1.64457 116.874 1.53915 115.946 1.45481 114.871C1.39156 113.774 1.35993 112.393 1.35993 110.727C1.35993 109.273 1.50752 107.944 1.8027 106.743C2.11897 105.52 2.53011 104.487 3.03613 103.643C3.56324 102.8 4.1536 102.062 4.80721 101.429C5.46082 100.776 6.16714 100.27 6.92617 99.9112C7.70629 99.5528 8.45478 99.2892 9.17165 99.1206C9.9096 98.9308 10.6475 98.8359 11.3855 98.8359C12.271 98.8359 13.146 98.9624 14.0105 99.2155C14.8749 99.4474 15.7499 99.8585 16.6355 100.449C17.521 101.039 18.2906 101.777 18.9442 102.663C19.6189 103.527 20.1671 104.655 20.5888 106.047C21.0104 107.438 21.2213 108.999 21.2213 110.727C21.2213 113.511 21.1159 115.577 20.905 116.926C20.7153 118.255 20.3779 119.182 19.893 119.709C19.4291 120.236 18.7017 120.5 17.7108 120.5C16.3192 120.5 15.3388 120.247 14.7695 119.741C14.2002 119.235 13.9156 118.444 13.9156 117.369V115.693ZM30.7697 117.116C30.7697 118.381 30.5062 119.267 29.9791 119.773C29.452 120.258 28.5137 120.5 27.1643 120.5C25.9204 120.5 25.077 120.215 24.6342 119.646C24.1915 119.056 23.9701 118.096 23.9701 116.768V108.988C23.9701 108.271 24.0966 107.649 24.3496 107.122C24.6026 106.574 24.9716 106.152 25.4565 105.857C25.9414 105.562 26.5107 105.414 27.1643 105.414C28.7667 105.414 29.8209 105.878 30.327 106.806C31.5499 105.878 32.7306 105.414 33.8691 105.414C36.083 105.414 37.1899 106.468 37.1899 108.577C37.1899 109.42 36.9474 110.105 36.4625 110.633C35.9775 111.16 35.345 111.423 34.5649 111.423C34.101 111.423 33.7215 111.328 33.4264 111.139C33.1523 110.949 32.8887 110.759 32.6357 110.569C32.4038 110.38 32.1297 110.285 31.8134 110.285C31.3496 110.285 31.0017 110.443 30.7697 110.759V117.116ZM40.7778 113.732V110C40.2506 109.979 39.829 109.895 39.5127 109.747C39.1964 109.578 38.9645 109.368 38.8169 109.115C38.6904 108.861 38.6272 108.545 38.6272 108.166C38.6272 106.964 39.3546 106.31 40.8094 106.205V103.264C40.8094 102.462 41.3892 101.746 42.5488 101.113C43.7085 100.459 44.8576 100.133 45.9961 100.133C46.6919 100.133 47.1452 100.333 47.356 100.734C47.5669 101.134 47.6723 101.735 47.6723 102.536L47.7039 106.173H48.5578C49.7175 106.173 50.5081 106.331 50.9298 106.648C51.3726 106.943 51.594 107.491 51.594 108.292C51.594 108.63 51.5307 108.914 51.4042 109.146C51.2777 109.378 51.0669 109.557 50.7717 109.684C50.4976 109.81 50.1602 109.905 49.7596 109.968C49.359 110.011 48.8636 110.032 48.2732 110.032H47.7039V113.511C47.7039 113.848 47.7145 114.133 47.7356 114.364C47.7777 114.575 47.8304 114.744 47.8937 114.871C47.9569 114.997 48.0413 115.081 48.1467 115.124C48.2732 115.166 48.4208 115.187 48.5895 115.187C48.8425 115.187 49.0533 115.102 49.222 114.934C49.3907 114.744 49.5172 114.544 49.6015 114.333C49.7069 114.101 49.8334 113.901 49.981 113.732C50.1497 113.542 50.3395 113.447 50.5503 113.447C51.0352 113.447 51.4042 113.563 51.6572 113.795C51.9313 114.027 52.0684 114.312 52.0684 114.649C52.0684 115.218 51.9524 115.83 51.7205 116.483C51.5096 117.137 51.1934 117.77 50.7717 118.381C50.35 118.992 49.7596 119.498 49.0006 119.899C48.2627 120.3 47.4298 120.5 46.5021 120.5C44.4148 120.5 42.9389 119.973 42.0744 118.919C41.21 117.864 40.7778 116.136 40.7778 113.732ZM63.2745 120.69C60.7022 120.69 58.5727 120.026 56.8859 118.697C55.2203 117.369 54.3875 115.556 54.3875 113.258C54.3875 110.77 55.2098 108.809 56.8543 107.375C58.52 105.92 60.66 105.193 63.2745 105.193C65.7413 105.193 67.544 105.636 68.6826 106.521C69.8422 107.386 70.422 108.577 70.422 110.095C70.422 110.39 70.3799 110.675 70.2955 110.949C70.2323 111.223 70.1163 111.497 69.9476 111.771C69.8 112.024 69.5892 112.267 69.3151 112.499C69.0621 112.709 68.7669 112.91 68.4296 113.099C68.0922 113.268 67.6916 113.405 67.2278 113.511C66.7639 113.595 66.2684 113.637 65.7413 113.637L61.282 113.669C61.4929 114.343 61.8724 114.881 62.4206 115.282C62.9688 115.661 63.6645 115.851 64.5079 115.851C65.4145 115.851 66.3422 115.735 67.291 115.503C67.6916 115.398 68.1238 115.229 68.5877 114.997C69.0726 114.765 69.4205 114.649 69.6314 114.649C69.9898 114.649 70.2639 114.755 70.4537 114.965C70.6645 115.176 70.7699 115.44 70.7699 115.756C70.7699 116.136 70.6012 116.599 70.2639 117.148C69.9266 117.675 69.4522 118.212 68.8407 118.761C68.2504 119.288 67.4597 119.741 66.4687 120.12C65.4778 120.5 64.413 120.69 63.2745 120.69ZM61.1239 111.645C62.5787 111.624 63.3694 111.613 63.4959 111.613C63.8121 111.613 64.044 111.423 64.1916 111.044C64.2971 110.77 64.3498 110.39 64.3498 109.905C64.3498 108.577 63.9492 107.913 63.148 107.913C62.8528 107.913 62.5576 108.071 62.2624 108.387C61.9883 108.703 61.7459 109.157 61.535 109.747C61.3242 110.316 61.1871 110.949 61.1239 111.645ZM91.6198 111.993C91.6198 110.812 91.156 110.221 90.2283 110.221C89.7855 110.221 89.4165 110.411 89.1214 110.791C88.8473 111.149 88.6891 111.634 88.647 112.246V117.116C88.647 118.402 88.3834 119.288 87.8563 119.773C87.3292 120.258 86.4015 120.5 85.0732 120.5C83.8292 120.5 82.9753 120.215 82.5115 119.646C82.0687 119.056 81.8473 118.096 81.8473 116.768V108.988C81.8473 107.913 82.1319 107.048 82.7012 106.395C83.2916 105.741 84.0717 105.414 85.0416 105.414C85.8428 105.414 86.5175 105.53 87.0657 105.762C87.6138 105.994 88.025 106.395 88.2991 106.964C89.9437 105.889 91.9467 105.351 94.3081 105.351C95.8051 105.351 96.8804 105.941 97.534 107.122C98.2087 108.303 98.546 110.243 98.546 112.941C98.546 114.27 98.5144 115.355 98.4511 116.199C98.3879 117.021 98.2825 117.738 98.1349 118.349C98.0084 118.94 97.7975 119.383 97.5024 119.678C97.2072 119.973 96.8593 120.184 96.4587 120.31C96.0792 120.437 95.5837 120.5 94.9722 120.5C93.7915 120.5 92.9376 120.279 92.4105 119.836C91.9045 119.393 91.6515 118.739 91.6515 117.875L91.6198 111.993ZM106.751 120.69C105.086 120.69 103.705 120.015 102.608 118.666C101.512 117.295 100.964 115.429 100.964 113.068C100.964 110.664 101.501 108.756 102.577 107.343C103.673 105.91 105.065 105.193 106.751 105.193C108.459 105.193 110.04 105.794 111.495 106.996C112.065 105.941 112.982 105.414 114.247 105.414C115.385 105.414 116.271 105.667 116.903 106.173C117.536 106.658 117.852 107.565 117.852 108.893V117.116C117.852 118.381 117.589 119.267 117.062 119.773C116.534 120.258 115.607 120.5 114.278 120.5C112.887 120.5 111.97 120.11 111.527 119.33C110.178 120.236 108.586 120.69 106.751 120.69ZM111.053 110.032C110.694 109.42 110.23 109.115 109.661 109.115C109.113 109.115 108.67 109.515 108.333 110.316C107.995 111.118 107.827 112.035 107.827 113.068C107.827 114.038 107.985 114.902 108.301 115.661C108.617 116.42 109.06 116.8 109.629 116.8C110.22 116.8 110.694 116.515 111.053 115.946V110.032ZM142.855 104.782C142.855 104.339 142.665 103.959 142.285 103.643C141.927 103.327 141.495 103.169 140.989 103.169C139.977 103.169 139.144 103.749 138.49 104.908C137.837 106.047 137.51 107.343 137.51 108.798C137.51 109.916 137.721 110.928 138.142 111.834C138.564 112.72 139.175 113.426 139.977 113.953C140.778 114.48 141.705 114.744 142.76 114.744C143.54 114.744 144.288 114.596 145.005 114.301C145.722 113.985 146.302 113.648 146.745 113.289C147.187 112.91 147.641 112.572 148.105 112.277C148.589 111.961 149.011 111.803 149.37 111.803C149.833 111.803 150.234 111.993 150.571 112.372C150.909 112.73 151.077 113.11 151.077 113.511C151.077 113.953 150.94 114.47 150.666 115.06C150.413 115.651 150.002 116.283 149.433 116.958C148.864 117.611 148.199 118.223 147.44 118.792C146.681 119.34 145.733 119.804 144.594 120.184C143.477 120.542 142.296 120.721 141.052 120.721C139.407 120.721 137.879 120.479 136.466 119.994C135.074 119.488 133.862 118.782 132.829 117.875C131.796 116.947 130.984 115.788 130.394 114.396C129.803 113.005 129.508 111.444 129.508 109.715C129.508 106.3 130.531 103.601 132.576 101.619C134.621 99.6371 137.299 98.6462 140.609 98.6462C142.296 98.6462 143.856 98.9308 145.29 99.5001C146.724 100.069 147.862 100.86 148.705 101.872C149.549 102.884 149.97 103.991 149.97 105.193C149.97 106.584 149.507 107.849 148.579 108.988C147.651 110.105 146.449 110.664 144.974 110.664C144.13 110.664 143.371 110.432 142.696 109.968C142.022 109.505 141.684 108.84 141.684 107.976C141.684 107.575 141.874 107.017 142.254 106.3C142.654 105.583 142.855 105.077 142.855 104.782ZM159.318 120.69C157.652 120.69 156.271 120.015 155.175 118.666C154.078 117.295 153.53 115.429 153.53 113.068C153.53 110.664 154.068 108.756 155.143 107.343C156.24 105.91 157.631 105.193 159.318 105.193C161.026 105.193 162.607 105.794 164.062 106.996C164.631 105.941 165.548 105.414 166.813 105.414C167.952 105.414 168.837 105.667 169.47 106.173C170.102 106.658 170.419 107.565 170.419 108.893V117.116C170.419 118.381 170.155 119.267 169.628 119.773C169.101 120.258 168.173 120.5 166.845 120.5C165.453 120.5 164.536 120.11 164.093 119.33C162.744 120.236 161.152 120.69 159.318 120.69ZM163.619 110.032C163.261 109.42 162.797 109.115 162.227 109.115C161.679 109.115 161.236 109.515 160.899 110.316C160.562 111.118 160.393 112.035 160.393 113.068C160.393 114.038 160.551 114.902 160.868 115.661C161.184 116.42 161.627 116.8 162.196 116.8C162.786 116.8 163.261 116.515 163.619 115.946V110.032ZM183.102 111.993C183.102 110.812 182.638 110.221 181.71 110.221C181.267 110.221 180.898 110.411 180.603 110.791C180.329 111.149 180.171 111.634 180.129 112.246V117.116C180.129 118.402 179.865 119.288 179.338 119.773C178.811 120.258 177.883 120.5 176.555 120.5C175.311 120.5 174.457 120.215 173.993 119.646C173.55 119.056 173.329 118.096 173.329 116.768V108.988C173.329 107.913 173.614 107.048 174.183 106.395C174.773 105.741 175.553 105.414 176.523 105.414C177.325 105.414 177.999 105.53 178.547 105.762C179.096 105.994 179.507 106.395 179.781 106.964C181.425 105.889 183.428 105.351 185.79 105.351C187.287 105.351 188.362 105.941 189.016 107.122C189.69 108.303 190.028 110.243 190.028 112.941C190.028 114.27 189.996 115.355 189.933 116.199C189.87 117.021 189.764 117.738 189.617 118.349C189.49 118.94 189.279 119.383 188.984 119.678C188.689 119.973 188.341 120.184 187.94 120.31C187.561 120.437 187.065 120.5 186.454 120.5C185.273 120.5 184.419 120.279 183.892 119.836C183.386 119.393 183.133 118.739 183.133 117.875L183.102 111.993ZM201.269 120.69C198.697 120.69 196.567 120.026 194.881 118.697C193.215 117.369 192.382 115.556 192.382 113.258C192.382 110.77 193.204 108.809 194.849 107.375C196.515 105.92 198.655 105.193 201.269 105.193C203.736 105.193 205.539 105.636 206.677 106.521C207.837 107.386 208.417 108.577 208.417 110.095C208.417 110.39 208.375 110.675 208.29 110.949C208.227 111.223 208.111 111.497 207.942 111.771C207.795 112.024 207.584 112.267 207.31 112.499C207.057 112.709 206.762 112.91 206.424 113.099C206.087 113.268 205.686 113.405 205.223 113.511C204.759 113.595 204.263 113.637 203.736 113.637L199.277 113.669C199.488 114.343 199.867 114.881 200.415 115.282C200.963 115.661 201.659 115.851 202.503 115.851C203.409 115.851 204.337 115.735 205.286 115.503C205.686 115.398 206.119 115.229 206.582 114.997C207.067 114.765 207.415 114.649 207.626 114.649C207.985 114.649 208.259 114.755 208.448 114.965C208.659 115.176 208.765 115.44 208.765 115.756C208.765 116.136 208.596 116.599 208.259 117.148C207.921 117.675 207.447 118.212 206.835 118.761C206.245 119.288 205.454 119.741 204.463 120.12C203.473 120.5 202.408 120.69 201.269 120.69ZM199.119 111.645C200.573 111.624 201.364 111.613 201.491 111.613C201.807 111.613 202.039 111.423 202.186 111.044C202.292 110.77 202.345 110.39 202.345 109.905C202.345 108.577 201.944 107.913 201.143 107.913C200.848 107.913 200.552 108.071 200.257 108.387C199.983 108.703 199.741 109.157 199.53 109.747C199.319 110.316 199.182 110.949 199.119 111.645ZM220.742 108.672C220.742 108.187 220.468 107.944 219.92 107.944C219.52 107.944 219.161 108.166 218.845 108.608C218.529 109.051 218.286 109.61 218.117 110.285C217.949 110.938 217.864 111.624 217.864 112.34C217.864 113.395 218.181 114.249 218.813 114.902C219.467 115.556 220.342 115.883 221.438 115.883C222.513 115.883 223.441 115.756 224.221 115.503C224.538 115.419 224.917 115.261 225.36 115.029C225.824 114.797 226.151 114.681 226.34 114.681C226.635 114.681 226.878 114.733 227.068 114.839C227.257 114.944 227.384 115.071 227.447 115.218C227.532 115.366 227.574 115.524 227.574 115.693C227.574 115.988 227.468 116.346 227.257 116.768C227.068 117.19 226.762 117.633 226.34 118.096C225.919 118.56 225.423 118.992 224.854 119.393C224.306 119.773 223.62 120.089 222.798 120.342C221.976 120.595 221.111 120.721 220.205 120.721C217.59 120.721 215.44 120.026 213.753 118.634C212.066 117.221 211.223 115.292 211.223 112.846C211.223 111.286 211.602 109.926 212.361 108.767C213.142 107.586 214.206 106.7 215.556 106.11C216.905 105.499 218.455 105.193 220.205 105.193C221.87 105.193 223.241 105.393 224.316 105.794C225.413 106.173 226.193 106.69 226.657 107.343C227.12 107.997 227.352 108.777 227.352 109.684C227.352 110.084 227.268 110.496 227.099 110.917C226.952 111.339 226.709 111.761 226.372 112.182C226.056 112.604 225.581 112.952 224.949 113.226C224.316 113.479 223.578 113.605 222.735 113.605C222.355 113.605 222.039 113.584 221.786 113.542C221.554 113.5 221.301 113.416 221.027 113.289C220.774 113.142 220.584 112.91 220.458 112.593C220.331 112.277 220.268 111.877 220.268 111.392C220.268 110.97 220.342 110.464 220.489 109.874C220.658 109.262 220.742 108.861 220.742 108.672ZM235.975 120.69C234.309 120.69 232.928 120.015 231.832 118.666C230.735 117.295 230.187 115.429 230.187 113.068C230.187 110.664 230.725 108.756 231.8 107.343C232.896 105.91 234.288 105.193 235.975 105.193C237.683 105.193 239.264 105.794 240.719 106.996C241.288 105.941 242.205 105.414 243.47 105.414C244.609 105.414 245.494 105.667 246.127 106.173C246.759 106.658 247.076 107.565 247.076 108.893V117.116C247.076 118.381 246.812 119.267 246.285 119.773C245.758 120.258 244.83 120.5 243.502 120.5C242.11 120.5 241.193 120.11 240.75 119.33C239.401 120.236 237.809 120.69 235.975 120.69ZM240.276 110.032C239.917 109.42 239.454 109.115 238.884 109.115C238.336 109.115 237.893 109.515 237.556 110.316C237.219 111.118 237.05 112.035 237.05 113.068C237.05 114.038 237.208 114.902 237.524 115.661C237.841 116.42 238.283 116.8 238.853 116.8C239.443 116.8 239.917 116.515 240.276 115.946V110.032Z" fill="#9B51E0"/>
<path d="M100.355 38.674C102.886 36.0985 103.954 34.6051 105.42 31.8793C106.83 35.0484 107.948 36.5276 110.485 38.674C107.951 41.1504 106.801 42.625 105.42 45.4687C104.015 42.2972 102.882 40.8311 100.355 38.674Z" fill="#FFC300"/>
<path d="M96.3753 33.3618L91.8043 31.8793C91.8043 31.8793 79.5229 77.5679 99.0932 86.7313C111.074 92.3411 123.047 92.0479 135.908 88.955C141.839 87.5286 145.319 82.7292 147.238 76.4774C147.742 74.8363 148.138 73.0952 148.442 71.2887C150.08 61.5767 149.074 49.9763 147.927 41.8861C147.641 39.8693 147.346 38.0707 147.082 36.5738C146.565 33.6515 146.162 31.8793 146.162 31.8793L141.591 33.3618C141.591 33.3618 153.003 80.6092 133.19 84.2604C122.788 86.1775 112.318 86.7303 101.564 82.0367C84.0435 74.3902 96.3753 33.3618 96.3753 33.3618Z" fill="#9B51E0"/>
<path d="M147.238 76.4774C147.238 76.4774 163.14 74.9764 168.276 67.706C172.011 62.4189 173.43 57.8017 171.859 51.5222C170.336 45.44 167.071 42.2396 161.605 39.1682C156.582 36.3458 147.082 36.5738 147.082 36.5738C147.346 38.0707 147.641 39.8693 147.927 41.8861C147.927 41.8861 157.405 41.137 161.605 44.6039C165.116 47.5024 166.645 50.4367 166.917 54.9813C167.162 59.0783 166.163 61.7017 163.705 64.9881C159.842 70.1515 148.442 71.2887 148.442 71.2887C148.138 73.0952 147.742 74.8363 147.238 76.4774Z" fill="#9B51E0"/>
<path fill-rule="evenodd" clip-rule="evenodd" d="M147.926 29.5548C156.445 19.936 165.345 3.11717 163.862 0.769903C162.38 -1.57737 145.812 11.8641 138.042 22.513C130.174 33.2973 124.197 40.8834 123.248 46.1093C123.022 47.3505 123.081 48.4587 123.465 49.4449C123.989 49.591 124.654 49.5204 125.441 49.2558C130.008 47.7215 138.695 39.6666 147.926 29.5548ZM146.196 27.3311C138.941 36.1671 124.947 47.4682 124.947 47.4682C124.947 47.4682 133.189 32.486 140.143 24.1191C147.275 15.5365 160.897 4.47612 160.897 4.47612C160.897 4.47612 152.93 19.129 146.196 27.3311Z" fill="#FFC300"/>
<path fill-rule="evenodd" clip-rule="evenodd" d="M123.248 46.1093C123.022 47.3505 123.081 48.4587 123.465 49.4449C123.989 49.591 124.654 49.5204 125.441 49.2558C125.959 52.5845 125.336 54.9549 123.248 57.5985C120.818 60.6746 117.995 61.7079 114.075 61.6754C110.649 61.6469 106.615 57.8578 106.787 57.5985C106.349 57.3324 104.54 54.3993 106.292 53.6452C107.831 52.9832 110.493 52.7805 110.493 52.7805C110.493 52.7805 110.746 50.6437 111.358 49.4449C112.594 47.0207 114.272 45.8854 116.917 45.2445C119.342 44.6567 121.069 44.8926 123.248 46.1093ZM112.717 53.6452C113.408 51.6311 113.6 50.7458 115.187 49.2558C117.222 47.346 120.568 46.2438 122.22 48.8043C122.98 49.9815 122.885 50.7699 122.353 52.7805C121.447 56.2 119.06 58.1019 116.052 58.8339C114.406 59.2346 113.297 58.8644 111.798 58.267C111.655 58.21 111.508 58.1517 111.358 58.0927C109.68 57.4351 108.156 55.7686 109.381 55.9925C110.606 56.2164 112.026 55.6594 112.717 53.6452Z" fill="#FFC300"/>
</svg>
