<svg width="460" height="493" viewBox="0 0 460 493" fill="none" xmlns="http://www.w3.org/2000/svg">
<path d="M67.1512 207.483C80.9098 193.484 86.7123 185.367 94.6812 170.552C102.342 187.777 108.42 195.817 122.211 207.483C108.438 220.942 102.185 228.957 94.6812 244.413C87.0449 227.175 80.8863 219.207 67.1512 207.483Z" fill="#FFC300"/>
<path d="M45.521 178.61L20.677 170.552C20.677 170.552 -46.0743 418.877 60.2932 468.681C125.412 499.172 190.486 497.578 260.389 480.768C292.626 473.015 311.539 446.929 321.968 412.95C324.705 404.03 326.858 394.567 328.514 384.749C337.416 331.962 331.949 268.912 325.714 224.941C324.159 213.979 322.557 204.204 321.118 196.068C318.309 180.185 316.12 170.552 316.12 170.552L291.276 178.61C291.276 178.61 353.3 435.407 245.617 455.252C189.077 465.672 132.174 468.676 73.7224 443.166C-21.5044 401.606 45.521 178.61 45.521 178.61Z" fill="#9B51E0"/>
<path d="M321.968 412.95C321.968 412.95 408.399 404.792 436.312 365.276C456.61 336.54 464.327 311.444 455.784 277.315C447.51 244.257 429.762 226.862 400.053 210.168C372.753 194.829 321.118 196.068 321.118 196.068C322.557 204.204 324.159 213.979 325.714 224.941C325.714 224.941 377.227 220.869 400.053 239.713C419.135 255.466 427.445 271.415 428.926 296.116C430.26 318.383 424.83 332.642 411.468 350.504C390.474 378.568 328.514 384.749 328.514 384.749C326.858 394.567 324.705 404.03 321.968 412.95Z" fill="#9B51E0"/>
<path fill-rule="evenodd" clip-rule="evenodd" d="M325.704 157.918C372.008 105.638 420.381 14.2247 412.323 1.46697C404.265 -11.2908 314.219 61.7655 271.988 119.644C229.22 178.258 196.734 219.49 191.577 247.893C190.351 254.64 190.668 260.663 192.755 266.023C195.604 266.817 199.218 266.433 203.498 264.995C228.319 256.656 275.534 212.877 325.704 157.918ZM316.304 145.831C276.874 193.856 200.813 255.28 200.813 255.28C200.813 255.28 245.608 173.849 283.402 128.373C322.171 81.7255 396.208 21.6108 396.208 21.6108C396.208 21.6108 352.906 101.251 316.304 145.831Z" fill="#FFC300"/>
<path fill-rule="evenodd" clip-rule="evenodd" d="M191.577 247.893C190.351 254.64 190.668 260.663 192.755 266.023C195.604 266.817 199.218 266.433 203.498 264.995C206.313 283.087 202.926 295.971 191.577 310.339C178.371 327.058 163.028 332.675 141.724 332.498C123.099 332.343 101.177 311.749 102.108 310.339C99.7285 308.893 89.8992 292.951 99.4219 288.853C107.783 285.254 122.252 284.152 122.252 284.152C122.252 284.152 123.63 272.539 126.952 266.023C133.67 252.847 142.794 246.677 157.168 243.193C170.348 239.999 179.735 241.281 191.577 247.893ZM134.338 288.853C138.094 277.905 139.139 273.094 147.767 264.995C158.826 254.615 177.012 248.624 185.993 262.542C190.122 268.94 189.607 273.225 186.712 284.152C181.787 302.738 168.816 313.075 152.467 317.054C143.519 319.232 137.492 317.22 129.343 313.973C128.566 313.663 127.77 313.346 126.952 313.025C117.833 309.451 109.551 300.393 116.208 301.61C122.865 302.827 130.582 299.8 134.338 288.853Z" fill="#FFC300"/>
</svg>
