<svg width="50" height="51" viewBox="0 0 50 51" fill="none" xmlns="http://www.w3.org/2000/svg">
<path d="M45.8334 16.1136V35.8324C45.8335 37.4266 45.2244 38.9605 44.1307 40.1204C43.0371 41.2803 41.5415 41.9784 39.9501 42.0719L39.5834 42.0824H10.4167C8.82256 42.0825 7.28859 41.4734 6.1287 40.3797C4.96882 39.286 4.27069 37.7905 4.17716 36.199L4.16675 35.8324V16.1136L23.8438 29.2324L24.0855 29.3699C24.3703 29.509 24.6831 29.5813 25.0001 29.5813C25.3171 29.5813 25.6299 29.509 25.9147 29.3699L26.1563 29.2324L45.8334 16.1136Z" fill="black"/>
<path d="M39.5836 8.74902C41.8336 8.74902 43.8065 9.93652 44.9065 11.7219L25.0002 24.9928L5.09397 11.7219C5.61633 10.8735 6.334 10.1624 7.18711 9.64774C8.04023 9.13312 9.00404 8.82997 9.99814 8.76361L10.4169 8.74902H39.5836Z" fill="black"/>
<path d="M45.8334 16.1136V35.8324C45.8335 37.4266 45.2244 38.9605 44.1307 40.1204C43.0371 41.2803 41.5415 41.9784 39.9501 42.0719L39.5834 42.0824H10.4167C8.82256 42.0825 7.28859 41.4734 6.1287 40.3797C4.96882 39.286 4.27069 37.7905 4.17716 36.199L4.16675 35.8324V16.1136L23.8438 29.2324L24.0855 29.3699C24.3703 29.509 24.6831 29.5813 25.0001 29.5813C25.3171 29.5813 25.6299 29.509 25.9147 29.3699L26.1563 29.2324L45.8334 16.1136Z" stroke="black"/>
<path d="M39.5836 8.74902C41.8336 8.74902 43.8065 9.93652 44.9065 11.7219L25.0002 24.9928L5.09397 11.7219C5.61633 10.8735 6.334 10.1624 7.18711 9.64774C8.04023 9.13312 9.00404 8.82997 9.99814 8.76361L10.4169 8.74902H39.5836Z" stroke="black"/>
</svg>
